# xmcd
#
# Track frame offsets:
#	150
#	11500
#	20537
#	29262
#	44662
#	58285
#	68362
#	83480
#	93675
#	107920
#	121387
#	138980
#	153175
#	166825
#	180425
#
# Disc length: 2572
#
# Revision: 1
# Processed by: cddbd v1.5.1PL0 Copyright (c) Steve Scherf et al.
# Submitted via: dBpowerAMP V4.0
# Normalized: r0:DSETVAR1,TDELIM( - )
#
DISCID=ba0a0a0f
DTITLE=Various Artist - Memorie d'italia
DYEAR=2001
DGENRE=Easy Listening
TTITLE0=Domenico Modugno - Nel Blu Dipinto Di Blu (Volare)
TTITLE1=Tony Dallara - Come Prima
TTITLE2=Mina - Il Cielo In Una Stanza
TTITLE3=Johnny Dorelli - L'immensita
TTITLE4=Toto Cutugno - L'Italiano
TTITLE5=Luciano Tajoli - Mamma
TTITLE6=Massimo Ranieri - Rose Rosse
TTITLE7=Adriano Celentano - 24 000 Baci
TTITLE8=Nicola Di Bari - La Prima Cosa Bella
TTITLE9=Toto Cutugno - Donna Donna Mia
TTITLE10=Sergio Bruni - Funiculi' Funicula'
TTITLE11=Bobby Solo - Une Lacrima Sul Viso
TTITLE12=Ricchi and Poveri - Sarâ Perché Ti Amo
TTITLE13=Enzo Belmonte - Ti Amo
TTITLE14=Claudio Villa - Non Pensare A Me
EXTD=
EXTT0=
EXTT1=
EXTT2=
EXTT3=
EXTT4=
EXTT5=
EXTT6=
EXTT7=
EXTT8=
EXTT9=
EXTT10=
EXTT11=
EXTT12=
EXTT13=
EXTT14=
PLAYORDER=
